<svg xmlns="http://www.w3.org/2000/svg" xmlns:xlink="http://www.w3.org/1999/xlink" width="262" zoomAndPan="magnify" viewBox="0 0 196.5 31.5" height="42" preserveAspectRatio="xMidYMid meet" version="1.0"><defs><g><g id="id1"/></g><clipPath id="id2"><path d="M 4.398438 3.109375 L 28.082031 3.109375 L 28.082031 19 L 4.398438 19 Z M 4.398438 3.109375 " clip-rule="nonzero"/></clipPath><clipPath id="id3"><path d="M 4.398438 17 L 28.082031 17 L 28.082031 22 L 4.398438 22 Z M 4.398438 17 " clip-rule="nonzero"/></clipPath><clipPath id="id4"><path d="M 9 23 L 23 23 L 23 26.054688 L 9 26.054688 Z M 9 23 " clip-rule="nonzero"/></clipPath></defs><g clip-path="url(#id2)"><path fill="rgb(100%, 100%, 100%)" d="M 27.683594 18.140625 L 4.796875 18.140625 C 4.578125 18.140625 4.402344 17.964844 4.402344 17.746094 L 4.402344 4.691406 C 4.402344 3.820312 5.109375 3.109375 5.980469 3.109375 L 26.5 3.109375 C 27.371094 3.109375 28.078125 3.820312 28.078125 4.691406 L 28.078125 17.746094 C 28.078125 17.964844 27.902344 18.140625 27.683594 18.140625 Z M 5.191406 17.351562 L 27.289062 17.351562 L 27.289062 4.691406 C 27.289062 4.253906 26.9375 3.898438 26.5 3.898438 L 5.980469 3.898438 C 5.546875 3.898438 5.191406 4.253906 5.191406 4.691406 Z M 5.191406 17.351562 " fill-opacity="1" fill-rule="nonzero"/></g><g clip-path="url(#id3)"><path fill="rgb(100%, 100%, 100%)" d="M 26.5 21.304688 L 5.980469 21.304688 C 5.109375 21.304688 4.402344 20.597656 4.402344 19.722656 L 4.402344 17.746094 C 4.402344 17.527344 4.578125 17.351562 4.796875 17.351562 L 27.683594 17.351562 C 27.902344 17.351562 28.078125 17.527344 28.078125 17.746094 L 28.078125 19.722656 C 28.078125 20.597656 27.371094 21.304688 26.5 21.304688 Z M 5.191406 18.140625 L 5.191406 19.722656 C 5.191406 20.160156 5.546875 20.515625 5.980469 20.515625 L 26.5 20.515625 C 26.9375 20.515625 27.289062 20.160156 27.289062 19.722656 L 27.289062 18.140625 Z M 5.191406 18.140625 " fill-opacity="1" fill-rule="nonzero"/></g><path fill="rgb(100%, 100%, 100%)" d="M 17.425781 19.722656 L 15.054688 19.722656 C 14.839844 19.722656 14.660156 19.546875 14.660156 19.328125 C 14.660156 19.109375 14.839844 18.933594 15.054688 18.933594 L 17.425781 18.933594 C 17.640625 18.933594 17.820312 19.109375 17.820312 19.328125 C 17.820312 19.546875 17.640625 19.722656 17.425781 19.722656 Z M 17.425781 19.722656 " fill-opacity="1" fill-rule="nonzero"/><path fill="rgb(100%, 100%, 100%)" d="M 26.105469 18.140625 L 6.375 18.140625 C 6.15625 18.140625 5.980469 17.964844 5.980469 17.746094 L 5.980469 5.085938 C 5.980469 4.867188 6.15625 4.691406 6.375 4.691406 L 26.105469 4.691406 C 26.324219 4.691406 26.5 4.867188 26.5 5.085938 L 26.5 17.746094 C 26.5 17.964844 26.324219 18.140625 26.105469 18.140625 Z M 6.769531 17.351562 L 25.710938 17.351562 L 25.710938 5.480469 L 6.769531 5.480469 Z M 6.769531 17.351562 " fill-opacity="1" fill-rule="nonzero"/><g clip-path="url(#id4)"><path fill="rgb(100%, 100%, 100%)" d="M 21.371094 26.054688 L 11.109375 26.054688 C 10.457031 26.054688 9.925781 25.519531 9.925781 24.867188 C 9.925781 24.210938 10.457031 23.679688 11.109375 23.679688 L 21.371094 23.679688 C 22.023438 23.679688 22.554688 24.210938 22.554688 24.867188 C 22.554688 25.519531 22.023438 26.054688 21.371094 26.054688 Z M 11.109375 24.472656 C 10.890625 24.472656 10.714844 24.648438 10.714844 24.867188 C 10.714844 25.085938 10.890625 25.261719 11.109375 25.261719 L 21.371094 25.261719 C 21.589844 25.261719 21.765625 25.085938 21.765625 24.867188 C 21.765625 24.648438 21.589844 24.472656 21.371094 24.472656 Z M 11.109375 24.472656 " fill-opacity="1" fill-rule="nonzero"/></g><path fill="rgb(100%, 100%, 100%)" d="M 20.582031 24.472656 L 11.898438 24.472656 C 11.679688 24.472656 11.503906 24.292969 11.503906 24.074219 C 11.503906 23.855469 11.679688 23.679688 11.898438 23.679688 C 13.207031 23.679688 13.871094 22.75 13.871094 20.910156 C 13.871094 20.691406 14.050781 20.515625 14.265625 20.515625 L 18.214844 20.515625 C 18.429688 20.515625 18.609375 20.691406 18.609375 20.910156 C 18.609375 22.75 19.273438 23.679688 20.582031 23.679688 C 20.800781 23.679688 20.976562 23.855469 20.976562 24.074219 C 20.976562 24.292969 20.800781 24.472656 20.582031 24.472656 Z M 13.820312 23.679688 L 18.660156 23.679688 C 18.171875 23.140625 17.886719 22.335938 17.828125 21.304688 L 14.652344 21.304688 C 14.59375 22.335938 14.308594 23.140625 13.820312 23.679688 Z M 13.820312 23.679688 " fill-opacity="1" fill-rule="nonzero"/><path fill="rgb(100%, 100%, 100%)" d="M 16.242188 18.140625 L 6.375 18.140625 C 6.15625 18.140625 5.980469 17.964844 5.980469 17.746094 L 5.980469 5.085938 C 5.980469 4.867188 6.15625 4.691406 6.375 4.691406 L 16.242188 4.691406 C 16.457031 4.691406 16.636719 4.867188 16.636719 5.085938 L 16.636719 17.746094 C 16.636719 17.964844 16.457031 18.140625 16.242188 18.140625 Z M 6.769531 17.351562 L 15.84375 17.351562 L 15.84375 5.480469 L 6.769531 5.480469 Z M 6.769531 17.351562 " fill-opacity="1" fill-rule="nonzero"/><path fill="rgb(100%, 100%, 100%)" d="M 10.714844 16.558594 C 10.65625 16.558594 10.59375 16.546875 10.539062 16.519531 C 10.34375 16.417969 10.265625 16.183594 10.363281 15.988281 L 11.546875 13.613281 C 11.644531 13.417969 11.882812 13.339844 12.074219 13.4375 C 12.269531 13.535156 12.347656 13.773438 12.253906 13.96875 L 11.066406 16.339844 C 11 16.480469 10.859375 16.558594 10.714844 16.558594 Z M 10.714844 16.558594 " fill-opacity="1" fill-rule="nonzero"/><path fill="rgb(100%, 100%, 100%)" d="M 7.953125 15.371094 C 7.851562 15.371094 7.75 15.332031 7.675781 15.257812 C 7.519531 15.101562 7.519531 14.851562 7.675781 14.695312 L 8.859375 13.511719 C 9.011719 13.355469 9.261719 13.355469 9.414062 13.511719 C 9.570312 13.664062 9.570312 13.914062 9.414062 14.070312 L 8.230469 15.257812 C 8.15625 15.332031 8.054688 15.371094 7.953125 15.371094 Z M 7.953125 15.371094 " fill-opacity="1" fill-rule="nonzero"/><path fill="rgb(100%, 100%, 100%)" d="M 9.136719 16.558594 C 9.035156 16.558594 8.933594 16.519531 8.859375 16.441406 L 7.675781 15.257812 C 7.519531 15.101562 7.519531 14.851562 7.675781 14.695312 C 7.828125 14.542969 8.078125 14.542969 8.230469 14.695312 L 9.414062 15.882812 C 9.570312 16.039062 9.570312 16.289062 9.414062 16.441406 C 9.339844 16.519531 9.238281 16.558594 9.136719 16.558594 Z M 9.136719 16.558594 " fill-opacity="1" fill-rule="nonzero"/><path fill="rgb(100%, 100%, 100%)" d="M 14.660156 15.371094 C 14.5625 15.371094 14.460938 15.332031 14.382812 15.257812 L 13.199219 14.070312 C 13.042969 13.914062 13.042969 13.664062 13.199219 13.511719 C 13.351562 13.355469 13.601562 13.355469 13.757812 13.511719 L 14.941406 14.695312 C 15.09375 14.851562 15.09375 15.101562 14.941406 15.257812 C 14.863281 15.332031 14.761719 15.371094 14.660156 15.371094 Z M 14.660156 15.371094 " fill-opacity="1" fill-rule="nonzero"/><path fill="rgb(100%, 100%, 100%)" d="M 13.476562 16.558594 C 13.375 16.558594 13.277344 16.519531 13.199219 16.441406 C 13.042969 16.289062 13.042969 16.039062 13.199219 15.882812 L 14.382812 14.695312 C 14.535156 14.542969 14.785156 14.542969 14.941406 14.695312 C 15.09375 14.851562 15.09375 15.101562 14.941406 15.257812 L 13.757812 16.441406 C 13.679688 16.519531 13.578125 16.558594 13.476562 16.558594 Z M 13.476562 16.558594 " fill-opacity="1" fill-rule="nonzero"/><path fill="rgb(100%, 100%, 100%)" d="M 11.503906 9.832031 C 11.285156 9.832031 11.109375 9.65625 11.109375 9.4375 L 11.109375 6.667969 C 11.109375 6.449219 11.285156 6.273438 11.503906 6.273438 C 11.722656 6.273438 11.898438 6.449219 11.898438 6.667969 L 11.898438 9.4375 C 11.898438 9.65625 11.722656 9.832031 11.503906 9.832031 Z M 11.503906 9.832031 " fill-opacity="1" fill-rule="nonzero"/><path fill="rgb(100%, 100%, 100%)" d="M 11.503906 12.207031 C 11.285156 12.207031 11.109375 12.03125 11.109375 11.8125 L 11.109375 11.019531 C 11.109375 10.800781 11.285156 10.625 11.503906 10.625 C 11.722656 10.625 11.898438 10.800781 11.898438 11.019531 L 11.898438 11.8125 C 11.898438 12.03125 11.722656 12.207031 11.503906 12.207031 Z M 11.503906 12.207031 " fill-opacity="1" fill-rule="nonzero"/><path fill="rgb(100%, 100%, 100%)" d="M 21.765625 7.066406 L 17.820312 7.066406 C 17.601562 7.066406 17.425781 6.886719 17.425781 6.667969 C 17.425781 6.449219 17.601562 6.273438 17.820312 6.273438 L 21.765625 6.273438 C 21.984375 6.273438 22.160156 6.449219 22.160156 6.667969 C 22.160156 6.886719 21.984375 7.066406 21.765625 7.066406 Z M 21.765625 7.066406 " fill-opacity="1" fill-rule="nonzero"/><path fill="rgb(100%, 100%, 100%)" d="M 24.527344 7.066406 L 23.34375 7.066406 C 23.125 7.066406 22.949219 6.886719 22.949219 6.667969 C 22.949219 6.449219 23.125 6.273438 23.34375 6.273438 L 24.527344 6.273438 C 24.746094 6.273438 24.921875 6.449219 24.921875 6.667969 C 24.921875 6.886719 24.746094 7.066406 24.527344 7.066406 Z M 24.527344 7.066406 " fill-opacity="1" fill-rule="nonzero"/><path fill="rgb(100%, 100%, 100%)" d="M 24.527344 8.648438 L 20.582031 8.648438 C 20.363281 8.648438 20.1875 8.46875 20.1875 8.25 C 20.1875 8.03125 20.363281 7.855469 20.582031 7.855469 L 24.527344 7.855469 C 24.746094 7.855469 24.921875 8.03125 24.921875 8.25 C 24.921875 8.46875 24.746094 8.648438 24.527344 8.648438 Z M 24.527344 8.648438 " fill-opacity="1" fill-rule="nonzero"/><path fill="rgb(100%, 100%, 100%)" d="M 19.003906 8.648438 L 17.820312 8.648438 C 17.601562 8.648438 17.425781 8.46875 17.425781 8.25 C 17.425781 8.03125 17.601562 7.855469 17.820312 7.855469 L 19.003906 7.855469 C 19.21875 7.855469 19.398438 8.03125 19.398438 8.25 C 19.398438 8.46875 19.21875 8.648438 19.003906 8.648438 Z M 19.003906 8.648438 " fill-opacity="1" fill-rule="nonzero"/><path fill="rgb(100%, 100%, 100%)" d="M 21.765625 10.230469 L 17.820312 10.230469 C 17.601562 10.230469 17.425781 10.050781 17.425781 9.832031 C 17.425781 9.617188 17.601562 9.4375 17.820312 9.4375 L 21.765625 9.4375 C 21.984375 9.4375 22.160156 9.617188 22.160156 9.832031 C 22.160156 10.050781 21.984375 10.230469 21.765625 10.230469 Z M 21.765625 10.230469 " fill-opacity="1" fill-rule="nonzero"/><path fill="rgb(100%, 100%, 100%)" d="M 24.527344 10.230469 L 23.34375 10.230469 C 23.125 10.230469 22.949219 10.050781 22.949219 9.832031 C 22.949219 9.617188 23.125 9.4375 23.34375 9.4375 L 24.527344 9.4375 C 24.746094 9.4375 24.921875 9.617188 24.921875 9.832031 C 24.921875 10.050781 24.746094 10.230469 24.527344 10.230469 Z M 24.527344 10.230469 " fill-opacity="1" fill-rule="nonzero"/><path fill="rgb(100%, 100%, 100%)" d="M 24.527344 11.8125 L 20.582031 11.8125 C 20.363281 11.8125 20.1875 11.632812 20.1875 11.417969 C 20.1875 11.199219 20.363281 11.019531 20.582031 11.019531 L 24.527344 11.019531 C 24.746094 11.019531 24.921875 11.199219 24.921875 11.417969 C 24.921875 11.632812 24.746094 11.8125 24.527344 11.8125 Z M 24.527344 11.8125 " fill-opacity="1" fill-rule="nonzero"/><path fill="rgb(100%, 100%, 100%)" d="M 19.003906 11.8125 L 17.820312 11.8125 C 17.601562 11.8125 17.425781 11.632812 17.425781 11.417969 C 17.425781 11.199219 17.601562 11.019531 17.820312 11.019531 L 19.003906 11.019531 C 19.21875 11.019531 19.398438 11.199219 19.398438 11.417969 C 19.398438 11.632812 19.21875 11.8125 19.003906 11.8125 Z M 19.003906 11.8125 " fill-opacity="1" fill-rule="nonzero"/><path fill="rgb(100%, 100%, 100%)" d="M 24.527344 16.558594 L 20.582031 16.558594 C 20.363281 16.558594 20.1875 16.382812 20.1875 16.164062 C 20.1875 15.945312 20.363281 15.769531 20.582031 15.769531 L 24.527344 15.769531 C 24.746094 15.769531 24.921875 15.945312 24.921875 16.164062 C 24.921875 16.382812 24.746094 16.558594 24.527344 16.558594 Z M 24.527344 16.558594 " fill-opacity="1" fill-rule="nonzero"/><path fill="rgb(100%, 100%, 100%)" d="M 19.003906 16.558594 L 17.820312 16.558594 C 17.601562 16.558594 17.425781 16.382812 17.425781 16.164062 C 17.425781 15.945312 17.601562 15.769531 17.820312 15.769531 L 19.003906 15.769531 C 19.21875 15.769531 19.398438 15.945312 19.398438 16.164062 C 19.398438 16.382812 19.21875 16.558594 19.003906 16.558594 Z M 19.003906 16.558594 " fill-opacity="1" fill-rule="nonzero"/><path fill="rgb(100%, 100%, 100%)" d="M 21.765625 13.394531 L 17.820312 13.394531 C 17.601562 13.394531 17.425781 13.21875 17.425781 13 C 17.425781 12.78125 17.601562 12.601562 17.820312 12.601562 L 21.765625 12.601562 C 21.984375 12.601562 22.160156 12.78125 22.160156 13 C 22.160156 13.21875 21.984375 13.394531 21.765625 13.394531 Z M 21.765625 13.394531 " fill-opacity="1" fill-rule="nonzero"/><path fill="rgb(100%, 100%, 100%)" d="M 24.527344 13.394531 L 23.34375 13.394531 C 23.125 13.394531 22.949219 13.21875 22.949219 13 C 22.949219 12.78125 23.125 12.601562 23.34375 12.601562 L 24.527344 12.601562 C 24.746094 12.601562 24.921875 12.78125 24.921875 13 C 24.921875 13.21875 24.746094 13.394531 24.527344 13.394531 Z M 24.527344 13.394531 " fill-opacity="1" fill-rule="nonzero"/><path fill="rgb(100%, 100%, 100%)" d="M 24.527344 14.976562 L 20.582031 14.976562 C 20.363281 14.976562 20.1875 14.800781 20.1875 14.582031 C 20.1875 14.363281 20.363281 14.183594 20.582031 14.183594 L 24.527344 14.183594 C 24.746094 14.183594 24.921875 14.363281 24.921875 14.582031 C 24.921875 14.800781 24.746094 14.976562 24.527344 14.976562 Z M 24.527344 14.976562 " fill-opacity="1" fill-rule="nonzero"/><path fill="rgb(100%, 100%, 100%)" d="M 19.003906 14.976562 L 17.820312 14.976562 C 17.601562 14.976562 17.425781 14.800781 17.425781 14.582031 C 17.425781 14.363281 17.601562 14.183594 17.820312 14.183594 L 19.003906 14.183594 C 19.21875 14.183594 19.398438 14.363281 19.398438 14.582031 C 19.398438 14.800781 19.21875 14.976562 19.003906 14.976562 Z M 19.003906 14.976562 " fill-opacity="1" fill-rule="nonzero"/><g fill="rgb(100%, 100%, 100%)" fill-opacity="1"><g transform="translate(35.219329, 18.978486)"><g><path d="M 9.21875 -1.828125 C 9.488281 -1.828125 9.710938 -1.738281 9.890625 -1.5625 C 10.066406 -1.394531 10.15625 -1.175781 10.15625 -0.90625 C 10.15625 -0.644531 10.066406 -0.425781 9.890625 -0.25 C 9.710938 -0.0820312 9.488281 0 9.21875 0 L 2.578125 0 C 2.296875 0 2.066406 -0.0859375 1.890625 -0.265625 C 1.710938 -0.453125 1.625 -0.675781 1.625 -0.9375 L 1.625 -12.8125 C 1.625 -13.070312 1.71875 -13.289062 1.90625 -13.46875 C 2.09375 -13.65625 2.328125 -13.75 2.609375 -13.75 C 2.867188 -13.75 3.09375 -13.65625 3.28125 -13.46875 C 3.476562 -13.289062 3.578125 -13.070312 3.578125 -12.8125 L 3.578125 -1.828125 Z M 9.21875 -1.828125 "/></g></g></g><g fill="rgb(100%, 100%, 100%)" fill-opacity="1"><g transform="translate(46.025034, 18.978486)"><g><path d="M 9.734375 -10.421875 C 10.015625 -10.421875 10.242188 -10.332031 10.421875 -10.15625 C 10.597656 -9.988281 10.6875 -9.757812 10.6875 -9.46875 L 10.6875 -0.9375 C 10.6875 -0.675781 10.597656 -0.453125 10.421875 -0.265625 C 10.242188 -0.0859375 10.015625 0 9.734375 0 C 9.460938 0 9.238281 -0.0859375 9.0625 -0.265625 C 8.894531 -0.441406 8.8125 -0.664062 8.8125 -0.9375 L 8.8125 -1.453125 C 8.476562 -0.992188 8.015625 -0.601562 7.421875 -0.28125 C 6.835938 0.0390625 6.203125 0.203125 5.515625 0.203125 C 4.628906 0.203125 3.820312 -0.0234375 3.09375 -0.484375 C 2.363281 -0.941406 1.789062 -1.582031 1.375 -2.40625 C 0.96875 -3.226562 0.765625 -4.148438 0.765625 -5.171875 C 0.765625 -6.191406 0.96875 -7.109375 1.375 -7.921875 C 1.789062 -8.742188 2.359375 -9.382812 3.078125 -9.84375 C 3.796875 -10.300781 4.585938 -10.53125 5.453125 -10.53125 C 6.148438 -10.53125 6.796875 -10.382812 7.390625 -10.09375 C 7.984375 -9.800781 8.457031 -9.4375 8.8125 -9 L 8.8125 -9.46875 C 8.8125 -9.738281 8.894531 -9.960938 9.0625 -10.140625 C 9.238281 -10.328125 9.460938 -10.421875 9.734375 -10.421875 Z M 5.734375 -1.53125 C 6.347656 -1.53125 6.894531 -1.6875 7.375 -2 C 7.851562 -2.3125 8.222656 -2.742188 8.484375 -3.296875 C 8.753906 -3.847656 8.890625 -4.472656 8.890625 -5.171875 C 8.890625 -5.847656 8.753906 -6.460938 8.484375 -7.015625 C 8.222656 -7.566406 7.851562 -8 7.375 -8.3125 C 6.894531 -8.632812 6.347656 -8.796875 5.734375 -8.796875 C 5.117188 -8.796875 4.570312 -8.640625 4.09375 -8.328125 C 3.613281 -8.015625 3.238281 -7.582031 2.96875 -7.03125 C 2.707031 -6.476562 2.578125 -5.859375 2.578125 -5.171875 C 2.578125 -4.472656 2.707031 -3.847656 2.96875 -3.296875 C 3.238281 -2.742188 3.613281 -2.3125 4.09375 -2 C 4.570312 -1.6875 5.117188 -1.53125 5.734375 -1.53125 Z M 5.734375 -1.53125 "/></g></g></g><g fill="rgb(100%, 100%, 100%)" fill-opacity="1"><g transform="translate(58.088131, 18.978486)"><g><path d="M 6.5625 -10.46875 C 7.445312 -10.46875 8.25 -10.238281 8.96875 -9.78125 C 9.695312 -9.332031 10.265625 -8.703125 10.671875 -7.890625 C 11.085938 -7.078125 11.296875 -6.160156 11.296875 -5.140625 C 11.296875 -4.117188 11.085938 -3.207031 10.671875 -2.40625 C 10.265625 -1.601562 9.695312 -0.972656 8.96875 -0.515625 C 8.25 -0.0546875 7.457031 0.171875 6.59375 0.171875 C 5.914062 0.171875 5.28125 0.0195312 4.6875 -0.28125 C 4.101562 -0.582031 3.628906 -0.945312 3.265625 -1.375 L 3.265625 2.984375 C 3.265625 3.242188 3.175781 3.460938 3 3.640625 C 2.820312 3.828125 2.59375 3.921875 2.3125 3.921875 C 2.050781 3.921875 1.832031 3.832031 1.65625 3.65625 C 1.476562 3.476562 1.390625 3.253906 1.390625 2.984375 L 1.390625 -9.375 C 1.390625 -9.644531 1.472656 -9.867188 1.640625 -10.046875 C 1.816406 -10.234375 2.039062 -10.328125 2.3125 -10.328125 C 2.59375 -10.328125 2.820312 -10.234375 3 -10.046875 C 3.175781 -9.867188 3.265625 -9.644531 3.265625 -9.375 L 3.265625 -8.796875 C 3.578125 -9.253906 4.03125 -9.644531 4.625 -9.96875 C 5.226562 -10.300781 5.875 -10.46875 6.5625 -10.46875 Z M 6.34375 -1.546875 C 6.945312 -1.546875 7.488281 -1.703125 7.96875 -2.015625 C 8.457031 -2.335938 8.832031 -2.769531 9.09375 -3.3125 C 9.363281 -3.851562 9.5 -4.460938 9.5 -5.140625 C 9.5 -5.828125 9.363281 -6.441406 9.09375 -6.984375 C 8.832031 -7.523438 8.457031 -7.953125 7.96875 -8.265625 C 7.488281 -8.578125 6.945312 -8.734375 6.34375 -8.734375 C 5.726562 -8.734375 5.175781 -8.578125 4.6875 -8.265625 C 4.207031 -7.960938 3.832031 -7.535156 3.5625 -6.984375 C 3.289062 -6.441406 3.15625 -5.828125 3.15625 -5.140625 C 3.15625 -4.460938 3.289062 -3.847656 3.5625 -3.296875 C 3.832031 -2.742188 4.207031 -2.3125 4.6875 -2 C 5.175781 -1.695312 5.726562 -1.546875 6.34375 -1.546875 Z M 6.34375 -1.546875 "/></g></g></g><g fill="rgb(100%, 100%, 100%)" fill-opacity="1"><g transform="translate(70.151227, 18.978486)"><g><path d="M 6.5625 -10.46875 C 7.445312 -10.46875 8.25 -10.238281 8.96875 -9.78125 C 9.695312 -9.332031 10.265625 -8.703125 10.671875 -7.890625 C 11.085938 -7.078125 11.296875 -6.160156 11.296875 -5.140625 C 11.296875 -4.117188 11.085938 -3.207031 10.671875 -2.40625 C 10.265625 -1.601562 9.695312 -0.972656 8.96875 -0.515625 C 8.25 -0.0546875 7.457031 0.171875 6.59375 0.171875 C 5.914062 0.171875 5.28125 0.0195312 4.6875 -0.28125 C 4.101562 -0.582031 3.628906 -0.945312 3.265625 -1.375 L 3.265625 2.984375 C 3.265625 3.242188 3.175781 3.460938 3 3.640625 C 2.820312 3.828125 2.59375 3.921875 2.3125 3.921875 C 2.050781 3.921875 1.832031 3.832031 1.65625 3.65625 C 1.476562 3.476562 1.390625 3.253906 1.390625 2.984375 L 1.390625 -9.375 C 1.390625 -9.644531 1.472656 -9.867188 1.640625 -10.046875 C 1.816406 -10.234375 2.039062 -10.328125 2.3125 -10.328125 C 2.59375 -10.328125 2.820312 -10.234375 3 -10.046875 C 3.175781 -9.867188 3.265625 -9.644531 3.265625 -9.375 L 3.265625 -8.796875 C 3.578125 -9.253906 4.03125 -9.644531 4.625 -9.96875 C 5.226562 -10.300781 5.875 -10.46875 6.5625 -10.46875 Z M 6.34375 -1.546875 C 6.945312 -1.546875 7.488281 -1.703125 7.96875 -2.015625 C 8.457031 -2.335938 8.832031 -2.769531 9.09375 -3.3125 C 9.363281 -3.851562 9.5 -4.460938 9.5 -5.140625 C 9.5 -5.828125 9.363281 -6.441406 9.09375 -6.984375 C 8.832031 -7.523438 8.457031 -7.953125 7.96875 -8.265625 C 7.488281 -8.578125 6.945312 -8.734375 6.34375 -8.734375 C 5.726562 -8.734375 5.175781 -8.578125 4.6875 -8.265625 C 4.207031 -7.960938 3.832031 -7.535156 3.5625 -6.984375 C 3.289062 -6.441406 3.15625 -5.828125 3.15625 -5.140625 C 3.15625 -4.460938 3.289062 -3.847656 3.5625 -3.296875 C 3.832031 -2.742188 4.207031 -2.3125 4.6875 -2 C 5.175781 -1.695312 5.726562 -1.546875 6.34375 -1.546875 Z M 6.34375 -1.546875 "/></g></g></g><g fill="rgb(100%, 100%, 100%)" fill-opacity="1"><g transform="translate(82.214324, 18.978486)"><g><path d="M 0.8125 -1.609375 C 0.6875 -1.796875 0.625 -1.972656 0.625 -2.140625 C 0.625 -2.398438 0.765625 -2.625 1.046875 -2.8125 C 1.171875 -2.90625 1.320312 -2.953125 1.5 -2.953125 C 1.726562 -2.953125 1.941406 -2.851562 2.140625 -2.65625 C 2.535156 -2.207031 2.957031 -1.867188 3.40625 -1.640625 C 3.851562 -1.421875 4.394531 -1.3125 5.03125 -1.3125 C 5.53125 -1.320312 5.96875 -1.4375 6.34375 -1.65625 C 6.71875 -1.875 6.90625 -2.222656 6.90625 -2.703125 C 6.90625 -3.148438 6.710938 -3.488281 6.328125 -3.71875 C 5.941406 -3.957031 5.378906 -4.175781 4.640625 -4.375 C 3.898438 -4.570312 3.285156 -4.78125 2.796875 -5 C 2.316406 -5.21875 1.910156 -5.53125 1.578125 -5.9375 C 1.242188 -6.351562 1.078125 -6.894531 1.078125 -7.5625 C 1.078125 -8.15625 1.242188 -8.671875 1.578125 -9.109375 C 1.910156 -9.554688 2.351562 -9.90625 2.90625 -10.15625 C 3.46875 -10.40625 4.078125 -10.53125 4.734375 -10.53125 C 5.359375 -10.53125 5.984375 -10.410156 6.609375 -10.171875 C 7.234375 -9.941406 7.738281 -9.582031 8.125 -9.09375 C 8.28125 -8.90625 8.359375 -8.71875 8.359375 -8.53125 C 8.359375 -8.3125 8.253906 -8.109375 8.046875 -7.921875 C 7.921875 -7.796875 7.757812 -7.734375 7.5625 -7.734375 C 7.320312 -7.734375 7.128906 -7.8125 6.984375 -7.96875 C 6.710938 -8.289062 6.375 -8.535156 5.96875 -8.703125 C 5.570312 -8.867188 5.132812 -8.953125 4.65625 -8.953125 C 4.15625 -8.953125 3.734375 -8.847656 3.390625 -8.640625 C 3.046875 -8.441406 2.875 -8.101562 2.875 -7.625 C 2.882812 -7.164062 3.082031 -6.820312 3.46875 -6.59375 C 3.851562 -6.375 4.445312 -6.160156 5.25 -5.953125 C 5.9375 -5.765625 6.507812 -5.566406 6.96875 -5.359375 C 7.425781 -5.148438 7.8125 -4.835938 8.125 -4.421875 C 8.445312 -4.015625 8.609375 -3.476562 8.609375 -2.8125 C 8.609375 -2.195312 8.429688 -1.660156 8.078125 -1.203125 C 7.722656 -0.753906 7.257812 -0.40625 6.6875 -0.15625 C 6.113281 0.0820312 5.507812 0.203125 4.875 0.203125 C 4.050781 0.203125 3.285156 0.0546875 2.578125 -0.234375 C 1.878906 -0.523438 1.289062 -0.984375 0.8125 -1.609375 Z M 0.8125 -1.609375 "/></g></g></g></svg>