<svg xmlns="http://www.w3.org/2000/svg" xmlns:xlink="http://www.w3.org/1999/xlink" width="262" zoomAndPan="magnify" viewBox="0 0 196.5 31.5" height="42" preserveAspectRatio="xMidYMid meet" version="1.0"><defs><g><g id="id1"/></g><clipPath id="id2"><path d="M 2.910156 1.472656 L 33.257812 1.472656 L 33.257812 21 L 2.910156 21 Z M 2.910156 1.472656 " clip-rule="nonzero"/></clipPath><clipPath id="id3"><path d="M 2.910156 19 L 33.257812 19 L 33.257812 25 L 2.910156 25 Z M 2.910156 19 " clip-rule="nonzero"/></clipPath><clipPath id="id4"><path d="M 9 28 L 27 28 L 27 31.007812 L 9 31.007812 Z M 9 28 " clip-rule="nonzero"/></clipPath></defs><g clip-path="url(#id2)"><path fill="rgb(100%, 100%, 100%)" d="M 32.742188 20.867188 L 3.425781 20.867188 C 3.148438 20.867188 2.921875 20.640625 2.921875 20.359375 L 2.921875 3.515625 C 2.921875 2.386719 3.828125 1.472656 4.941406 1.472656 L 31.226562 1.472656 C 32.339844 1.472656 33.246094 2.386719 33.246094 3.515625 L 33.246094 20.359375 C 33.246094 20.640625 33.019531 20.867188 32.742188 20.867188 Z M 3.929688 19.847656 L 32.238281 19.847656 L 32.238281 3.515625 C 32.238281 2.949219 31.78125 2.492188 31.226562 2.492188 L 4.941406 2.492188 C 4.386719 2.492188 3.929688 2.949219 3.929688 3.515625 Z M 3.929688 19.847656 " fill-opacity="1" fill-rule="nonzero"/></g><g clip-path="url(#id3)"><path fill="rgb(100%, 100%, 100%)" d="M 31.226562 24.953125 L 4.941406 24.953125 C 3.828125 24.953125 2.921875 24.035156 2.921875 22.910156 L 2.921875 20.359375 C 2.921875 20.078125 3.148438 19.847656 3.425781 19.847656 L 32.742188 19.847656 C 33.019531 19.847656 33.246094 20.078125 33.246094 20.359375 L 33.246094 22.910156 C 33.246094 24.035156 32.339844 24.953125 31.226562 24.953125 Z M 3.929688 20.867188 L 3.929688 22.910156 C 3.929688 23.472656 4.386719 23.929688 4.941406 23.929688 L 31.226562 23.929688 C 31.78125 23.929688 32.238281 23.472656 32.238281 22.910156 L 32.238281 20.867188 Z M 3.929688 20.867188 " fill-opacity="1" fill-rule="nonzero"/></g><path fill="rgb(100%, 100%, 100%)" d="M 19.601562 22.910156 L 16.566406 22.910156 C 16.289062 22.910156 16.0625 22.683594 16.0625 22.398438 C 16.0625 22.117188 16.289062 21.890625 16.566406 21.890625 L 19.601562 21.890625 C 19.878906 21.890625 20.105469 22.117188 20.105469 22.398438 C 20.105469 22.683594 19.878906 22.910156 19.601562 22.910156 Z M 19.601562 22.910156 " fill-opacity="1" fill-rule="nonzero"/><path fill="rgb(100%, 100%, 100%)" d="M 30.71875 20.867188 L 5.449219 20.867188 C 5.167969 20.867188 4.941406 20.640625 4.941406 20.359375 L 4.941406 4.023438 C 4.941406 3.742188 5.167969 3.511719 5.449219 3.511719 L 30.71875 3.511719 C 31 3.511719 31.226562 3.742188 31.226562 4.023438 L 31.226562 20.359375 C 31.226562 20.640625 31 20.867188 30.71875 20.867188 Z M 5.953125 19.847656 L 30.214844 19.847656 L 30.214844 4.535156 L 5.953125 4.535156 Z M 5.953125 19.847656 " fill-opacity="1" fill-rule="nonzero"/><g clip-path="url(#id4)"><path fill="rgb(100%, 100%, 100%)" d="M 24.65625 31.078125 L 11.511719 31.078125 C 10.675781 31.078125 9.996094 30.390625 9.996094 29.546875 C 9.996094 28.703125 10.675781 28.015625 11.511719 28.015625 L 24.65625 28.015625 C 25.492188 28.015625 26.171875 28.703125 26.171875 29.546875 C 26.171875 30.390625 25.492188 31.078125 24.65625 31.078125 Z M 11.511719 29.035156 C 11.234375 29.035156 11.007812 29.265625 11.007812 29.546875 C 11.007812 29.828125 11.234375 30.058594 11.511719 30.058594 L 24.65625 30.058594 C 24.933594 30.058594 25.160156 29.828125 25.160156 29.546875 C 25.160156 29.265625 24.933594 29.035156 24.65625 29.035156 Z M 11.511719 29.035156 " fill-opacity="1" fill-rule="nonzero"/></g><path fill="rgb(100%, 100%, 100%)" d="M 23.644531 29.035156 L 12.523438 29.035156 C 12.246094 29.035156 12.019531 28.808594 12.019531 28.527344 C 12.019531 28.242188 12.246094 28.015625 12.523438 28.015625 C 14.199219 28.015625 15.050781 26.8125 15.050781 24.441406 C 15.050781 24.160156 15.277344 23.929688 15.558594 23.929688 L 20.609375 23.929688 C 20.890625 23.929688 21.117188 24.160156 21.117188 24.441406 C 21.117188 26.8125 21.96875 28.015625 23.644531 28.015625 C 23.921875 28.015625 24.148438 28.242188 24.148438 28.527344 C 24.148438 28.808594 23.921875 29.035156 23.644531 29.035156 Z M 14.984375 28.015625 L 21.183594 28.015625 C 20.558594 27.320312 20.191406 26.28125 20.121094 24.953125 L 16.046875 24.953125 C 15.976562 26.28125 15.609375 27.320312 14.984375 28.015625 Z M 14.984375 28.015625 " fill-opacity="1" fill-rule="nonzero"/><path fill="rgb(100%, 100%, 100%)" d="M 18.082031 20.867188 L 5.449219 20.867188 C 5.167969 20.867188 4.941406 20.640625 4.941406 20.359375 L 4.941406 4.023438 C 4.941406 3.742188 5.167969 3.511719 5.449219 3.511719 L 18.082031 3.511719 C 18.363281 3.511719 18.589844 3.742188 18.589844 4.023438 L 18.589844 20.359375 C 18.589844 20.640625 18.363281 20.867188 18.082031 20.867188 Z M 5.953125 19.847656 L 17.578125 19.847656 L 17.578125 4.535156 L 5.953125 4.535156 Z M 5.953125 19.847656 " fill-opacity="1" fill-rule="nonzero"/><path fill="rgb(100%, 100%, 100%)" d="M 11.007812 18.828125 C 10.929688 18.828125 10.855469 18.808594 10.78125 18.773438 C 10.53125 18.648438 10.429688 18.339844 10.554688 18.089844 L 12.070312 15.027344 C 12.195312 14.773438 12.5 14.671875 12.75 14.796875 C 13 14.921875 13.101562 15.230469 12.976562 15.480469 L 11.460938 18.546875 C 11.371094 18.722656 11.191406 18.828125 11.007812 18.828125 Z M 11.007812 18.828125 " fill-opacity="1" fill-rule="nonzero"/><path fill="rgb(100%, 100%, 100%)" d="M 7.46875 17.296875 C 7.339844 17.296875 7.210938 17.246094 7.113281 17.144531 C 6.914062 16.945312 6.914062 16.625 7.113281 16.425781 L 8.628906 14.894531 C 8.824219 14.691406 9.144531 14.691406 9.34375 14.894531 C 9.539062 15.09375 9.539062 15.414062 9.34375 15.613281 L 7.828125 17.144531 C 7.726562 17.246094 7.597656 17.296875 7.46875 17.296875 Z M 7.46875 17.296875 " fill-opacity="1" fill-rule="nonzero"/><path fill="rgb(100%, 100%, 100%)" d="M 8.984375 18.828125 C 8.855469 18.828125 8.726562 18.777344 8.628906 18.675781 L 7.113281 17.144531 C 6.914062 16.945312 6.914062 16.625 7.113281 16.425781 C 7.308594 16.222656 7.628906 16.222656 7.828125 16.425781 L 9.34375 17.957031 C 9.539062 18.15625 9.539062 18.476562 9.34375 18.675781 C 9.246094 18.777344 9.117188 18.828125 8.984375 18.828125 Z M 8.984375 18.828125 " fill-opacity="1" fill-rule="nonzero"/><path fill="rgb(100%, 100%, 100%)" d="M 16.0625 17.296875 C 15.933594 17.296875 15.804688 17.246094 15.703125 17.144531 L 14.1875 15.613281 C 13.992188 15.414062 13.992188 15.09375 14.1875 14.894531 C 14.386719 14.691406 14.707031 14.691406 14.902344 14.894531 L 16.417969 16.425781 C 16.617188 16.625 16.617188 16.945312 16.417969 17.144531 C 16.320312 17.246094 16.191406 17.296875 16.0625 17.296875 Z M 16.0625 17.296875 " fill-opacity="1" fill-rule="nonzero"/><path fill="rgb(100%, 100%, 100%)" d="M 14.546875 18.828125 C 14.417969 18.828125 14.285156 18.777344 14.1875 18.675781 C 13.992188 18.476562 13.992188 18.15625 14.1875 17.957031 L 15.703125 16.425781 C 15.902344 16.222656 16.222656 16.222656 16.417969 16.425781 C 16.617188 16.625 16.617188 16.945312 16.417969 17.144531 L 14.902344 18.675781 C 14.804688 18.777344 14.675781 18.828125 14.546875 18.828125 Z M 14.546875 18.828125 " fill-opacity="1" fill-rule="nonzero"/><path fill="rgb(100%, 100%, 100%)" d="M 12.019531 10.148438 C 11.738281 10.148438 11.511719 9.921875 11.511719 9.640625 L 11.511719 6.066406 C 11.511719 5.785156 11.738281 5.554688 12.019531 5.554688 C 12.296875 5.554688 12.523438 5.785156 12.523438 6.066406 L 12.523438 9.640625 C 12.523438 9.921875 12.296875 10.148438 12.019531 10.148438 Z M 12.019531 10.148438 " fill-opacity="1" fill-rule="nonzero"/><path fill="rgb(100%, 100%, 100%)" d="M 12.019531 13.210938 C 11.738281 13.210938 11.511719 12.984375 11.511719 12.703125 L 11.511719 11.679688 C 11.511719 11.398438 11.738281 11.171875 12.019531 11.171875 C 12.296875 11.171875 12.523438 11.398438 12.523438 11.679688 L 12.523438 12.703125 C 12.523438 12.984375 12.296875 13.210938 12.019531 13.210938 Z M 12.019531 13.210938 " fill-opacity="1" fill-rule="nonzero"/><path fill="rgb(100%, 100%, 100%)" d="M 25.160156 6.574219 L 20.105469 6.574219 C 19.828125 6.574219 19.601562 6.347656 19.601562 6.066406 C 19.601562 5.785156 19.828125 5.554688 20.105469 5.554688 L 25.160156 5.554688 C 25.4375 5.554688 25.664062 5.785156 25.664062 6.066406 C 25.664062 6.347656 25.4375 6.574219 25.160156 6.574219 Z M 25.160156 6.574219 " fill-opacity="1" fill-rule="nonzero"/><path fill="rgb(100%, 100%, 100%)" d="M 28.699219 6.574219 L 27.183594 6.574219 C 26.902344 6.574219 26.675781 6.347656 26.675781 6.066406 C 26.675781 5.785156 26.902344 5.554688 27.183594 5.554688 L 28.699219 5.554688 C 28.976562 5.554688 29.203125 5.785156 29.203125 6.066406 C 29.203125 6.347656 28.976562 6.574219 28.699219 6.574219 Z M 28.699219 6.574219 " fill-opacity="1" fill-rule="nonzero"/><path fill="rgb(100%, 100%, 100%)" d="M 28.699219 8.617188 L 23.644531 8.617188 C 23.363281 8.617188 23.136719 8.390625 23.136719 8.105469 C 23.136719 7.824219 23.363281 7.597656 23.644531 7.597656 L 28.699219 7.597656 C 28.976562 7.597656 29.203125 7.824219 29.203125 8.105469 C 29.203125 8.390625 28.976562 8.617188 28.699219 8.617188 Z M 28.699219 8.617188 " fill-opacity="1" fill-rule="nonzero"/><path fill="rgb(100%, 100%, 100%)" d="M 21.621094 8.617188 L 20.105469 8.617188 C 19.828125 8.617188 19.601562 8.390625 19.601562 8.105469 C 19.601562 7.824219 19.828125 7.597656 20.105469 7.597656 L 21.621094 7.597656 C 21.902344 7.597656 22.128906 7.824219 22.128906 8.105469 C 22.128906 8.390625 21.902344 8.617188 21.621094 8.617188 Z M 21.621094 8.617188 " fill-opacity="1" fill-rule="nonzero"/><path fill="rgb(100%, 100%, 100%)" d="M 25.160156 10.660156 L 20.105469 10.660156 C 19.828125 10.660156 19.601562 10.429688 19.601562 10.148438 C 19.601562 9.867188 19.828125 9.640625 20.105469 9.640625 L 25.160156 9.640625 C 25.4375 9.640625 25.664062 9.867188 25.664062 10.148438 C 25.664062 10.429688 25.4375 10.660156 25.160156 10.660156 Z M 25.160156 10.660156 " fill-opacity="1" fill-rule="nonzero"/><path fill="rgb(100%, 100%, 100%)" d="M 28.699219 10.660156 L 27.183594 10.660156 C 26.902344 10.660156 26.675781 10.429688 26.675781 10.148438 C 26.675781 9.867188 26.902344 9.640625 27.183594 9.640625 L 28.699219 9.640625 C 28.976562 9.640625 29.203125 9.867188 29.203125 10.148438 C 29.203125 10.429688 28.976562 10.660156 28.699219 10.660156 Z M 28.699219 10.660156 " fill-opacity="1" fill-rule="nonzero"/><path fill="rgb(100%, 100%, 100%)" d="M 28.699219 12.703125 L 23.644531 12.703125 C 23.363281 12.703125 23.136719 12.472656 23.136719 12.191406 C 23.136719 11.910156 23.363281 11.679688 23.644531 11.679688 L 28.699219 11.679688 C 28.976562 11.679688 29.203125 11.910156 29.203125 12.191406 C 29.203125 12.472656 28.976562 12.703125 28.699219 12.703125 Z M 28.699219 12.703125 " fill-opacity="1" fill-rule="nonzero"/><path fill="rgb(100%, 100%, 100%)" d="M 21.621094 12.703125 L 20.105469 12.703125 C 19.828125 12.703125 19.601562 12.472656 19.601562 12.191406 C 19.601562 11.910156 19.828125 11.679688 20.105469 11.679688 L 21.621094 11.679688 C 21.902344 11.679688 22.128906 11.910156 22.128906 12.191406 C 22.128906 12.472656 21.902344 12.703125 21.621094 12.703125 Z M 21.621094 12.703125 " fill-opacity="1" fill-rule="nonzero"/><path fill="rgb(100%, 100%, 100%)" d="M 28.699219 18.828125 L 23.644531 18.828125 C 23.363281 18.828125 23.136719 18.597656 23.136719 18.316406 C 23.136719 18.035156 23.363281 17.804688 23.644531 17.804688 L 28.699219 17.804688 C 28.976562 17.804688 29.203125 18.035156 29.203125 18.316406 C 29.203125 18.597656 28.976562 18.828125 28.699219 18.828125 Z M 28.699219 18.828125 " fill-opacity="1" fill-rule="nonzero"/><path fill="rgb(100%, 100%, 100%)" d="M 21.621094 18.828125 L 20.105469 18.828125 C 19.828125 18.828125 19.601562 18.597656 19.601562 18.316406 C 19.601562 18.035156 19.828125 17.804688 20.105469 17.804688 L 21.621094 17.804688 C 21.902344 17.804688 22.128906 18.035156 22.128906 18.316406 C 22.128906 18.597656 21.902344 18.828125 21.621094 18.828125 Z M 21.621094 18.828125 " fill-opacity="1" fill-rule="nonzero"/><path fill="rgb(100%, 100%, 100%)" d="M 25.160156 14.742188 L 20.105469 14.742188 C 19.828125 14.742188 19.601562 14.515625 19.601562 14.234375 C 19.601562 13.949219 19.828125 13.722656 20.105469 13.722656 L 25.160156 13.722656 C 25.4375 13.722656 25.664062 13.949219 25.664062 14.234375 C 25.664062 14.515625 25.4375 14.742188 25.160156 14.742188 Z M 25.160156 14.742188 " fill-opacity="1" fill-rule="nonzero"/><path fill="rgb(100%, 100%, 100%)" d="M 28.699219 14.742188 L 27.183594 14.742188 C 26.902344 14.742188 26.675781 14.515625 26.675781 14.234375 C 26.675781 13.949219 26.902344 13.722656 27.183594 13.722656 L 28.699219 13.722656 C 28.976562 13.722656 29.203125 13.949219 29.203125 14.234375 C 29.203125 14.515625 28.976562 14.742188 28.699219 14.742188 Z M 28.699219 14.742188 " fill-opacity="1" fill-rule="nonzero"/><path fill="rgb(100%, 100%, 100%)" d="M 28.699219 16.785156 L 23.644531 16.785156 C 23.363281 16.785156 23.136719 16.554688 23.136719 16.273438 C 23.136719 15.992188 23.363281 15.765625 23.644531 15.765625 L 28.699219 15.765625 C 28.976562 15.765625 29.203125 15.992188 29.203125 16.273438 C 29.203125 16.554688 28.976562 16.785156 28.699219 16.785156 Z M 28.699219 16.785156 " fill-opacity="1" fill-rule="nonzero"/><path fill="rgb(100%, 100%, 100%)" d="M 21.621094 16.785156 L 20.105469 16.785156 C 19.828125 16.785156 19.601562 16.554688 19.601562 16.273438 C 19.601562 15.992188 19.828125 15.765625 20.105469 15.765625 L 21.621094 15.765625 C 21.902344 15.765625 22.128906 15.992188 22.128906 16.273438 C 22.128906 16.554688 21.902344 16.785156 21.621094 16.785156 Z M 21.621094 16.785156 " fill-opacity="1" fill-rule="nonzero"/><g fill="rgb(100%, 100%, 100%)" fill-opacity="1"><g transform="translate(33.221212, 24.100631)"><g><path d="M 15.1875 -3.015625 C 15.632812 -3.015625 16.003906 -2.875 16.296875 -2.59375 C 16.585938 -2.3125 16.734375 -1.941406 16.734375 -1.484375 C 16.734375 -1.054688 16.585938 -0.703125 16.296875 -0.421875 C 16.003906 -0.140625 15.632812 0 15.1875 0 L 4.234375 0 C 3.785156 0 3.414062 -0.148438 3.125 -0.453125 C 2.832031 -0.753906 2.6875 -1.117188 2.6875 -1.546875 L 2.6875 -21.109375 C 2.6875 -21.535156 2.835938 -21.898438 3.140625 -22.203125 C 3.441406 -22.503906 3.832031 -22.65625 4.3125 -22.65625 C 4.738281 -22.65625 5.109375 -22.503906 5.421875 -22.203125 C 5.734375 -21.898438 5.890625 -21.535156 5.890625 -21.109375 L 5.890625 -3.015625 Z M 15.1875 -3.015625 "/></g></g></g><g fill="rgb(100%, 100%, 100%)" fill-opacity="1"><g transform="translate(51.023576, 24.100631)"><g><path d="M 16.0625 -17.1875 C 16.507812 -17.1875 16.878906 -17.039062 17.171875 -16.75 C 17.460938 -16.457031 17.609375 -16.078125 17.609375 -15.609375 L 17.609375 -1.546875 C 17.609375 -1.117188 17.460938 -0.753906 17.171875 -0.453125 C 16.878906 -0.148438 16.507812 0 16.0625 0 C 15.601562 0 15.234375 -0.144531 14.953125 -0.4375 C 14.671875 -0.726562 14.53125 -1.097656 14.53125 -1.546875 L 14.53125 -2.390625 C 13.96875 -1.640625 13.203125 -1 12.234375 -0.46875 C 11.265625 0.0625 10.21875 0.328125 9.09375 0.328125 C 7.625 0.328125 6.289062 -0.046875 5.09375 -0.796875 C 3.894531 -1.554688 2.957031 -2.609375 2.28125 -3.953125 C 1.601562 -5.304688 1.265625 -6.828125 1.265625 -8.515625 C 1.265625 -10.203125 1.601562 -11.71875 2.28125 -13.0625 C 2.957031 -14.414062 3.890625 -15.46875 5.078125 -16.21875 C 6.265625 -16.976562 7.570312 -17.359375 9 -17.359375 C 10.144531 -17.359375 11.207031 -17.117188 12.1875 -16.640625 C 13.164062 -16.160156 13.945312 -15.554688 14.53125 -14.828125 L 14.53125 -15.609375 C 14.53125 -16.054688 14.671875 -16.429688 14.953125 -16.734375 C 15.234375 -17.035156 15.601562 -17.1875 16.0625 -17.1875 Z M 9.453125 -2.53125 C 10.460938 -2.53125 11.363281 -2.785156 12.15625 -3.296875 C 12.945312 -3.816406 13.5625 -4.53125 14 -5.4375 C 14.445312 -6.34375 14.671875 -7.367188 14.671875 -8.515625 C 14.671875 -9.640625 14.445312 -10.65625 14 -11.5625 C 13.5625 -12.46875 12.945312 -13.179688 12.15625 -13.703125 C 11.363281 -14.234375 10.460938 -14.5 9.453125 -14.5 C 8.441406 -14.5 7.539062 -14.238281 6.75 -13.71875 C 5.957031 -13.207031 5.335938 -12.5 4.890625 -11.59375 C 4.453125 -10.6875 4.234375 -9.660156 4.234375 -8.515625 C 4.234375 -7.367188 4.453125 -6.34375 4.890625 -5.4375 C 5.335938 -4.53125 5.957031 -3.816406 6.75 -3.296875 C 7.539062 -2.785156 8.441406 -2.53125 9.453125 -2.53125 Z M 9.453125 -2.53125 "/></g></g></g><g fill="rgb(100%, 100%, 100%)" fill-opacity="1"><g transform="translate(70.897487, 24.100631)"><g><path d="M 10.8125 -17.25 C 12.28125 -17.25 13.609375 -16.875 14.796875 -16.125 C 15.984375 -15.382812 16.914062 -14.34375 17.59375 -13 C 18.269531 -11.664062 18.609375 -10.160156 18.609375 -8.484375 C 18.609375 -6.796875 18.269531 -5.285156 17.59375 -3.953125 C 16.914062 -2.628906 15.984375 -1.585938 14.796875 -0.828125 C 13.609375 -0.078125 12.300781 0.296875 10.875 0.296875 C 9.75 0.296875 8.703125 0.046875 7.734375 -0.453125 C 6.765625 -0.953125 5.976562 -1.554688 5.375 -2.265625 L 5.375 4.921875 C 5.375 5.347656 5.226562 5.710938 4.9375 6.015625 C 4.644531 6.316406 4.269531 6.46875 3.8125 6.46875 C 3.382812 6.46875 3.023438 6.320312 2.734375 6.03125 C 2.441406 5.738281 2.296875 5.367188 2.296875 4.921875 L 2.296875 -15.4375 C 2.296875 -15.894531 2.4375 -16.273438 2.71875 -16.578125 C 3 -16.878906 3.363281 -17.03125 3.8125 -17.03125 C 4.269531 -17.03125 4.644531 -16.878906 4.9375 -16.578125 C 5.226562 -16.273438 5.375 -15.894531 5.375 -15.4375 L 5.375 -14.5 C 5.894531 -15.257812 6.648438 -15.90625 7.640625 -16.4375 C 8.628906 -16.976562 9.6875 -17.25 10.8125 -17.25 Z M 10.453125 -2.5625 C 11.453125 -2.5625 12.347656 -2.816406 13.140625 -3.328125 C 13.941406 -3.847656 14.5625 -4.554688 15 -5.453125 C 15.445312 -6.347656 15.671875 -7.359375 15.671875 -8.484375 C 15.671875 -9.609375 15.445312 -10.617188 15 -11.515625 C 14.5625 -12.410156 13.941406 -13.113281 13.140625 -13.625 C 12.347656 -14.144531 11.453125 -14.40625 10.453125 -14.40625 C 9.441406 -14.40625 8.535156 -14.148438 7.734375 -13.640625 C 6.941406 -13.140625 6.320312 -12.4375 5.875 -11.53125 C 5.4375 -10.625 5.21875 -9.609375 5.21875 -8.484375 C 5.21875 -7.359375 5.4375 -6.34375 5.875 -5.4375 C 6.320312 -4.53125 6.941406 -3.820312 7.734375 -3.3125 C 8.535156 -2.8125 9.441406 -2.5625 10.453125 -2.5625 Z M 10.453125 -2.5625 "/></g></g></g><g fill="rgb(100%, 100%, 100%)" fill-opacity="1"><g transform="translate(90.771399, 24.100631)"><g><path d="M 10.8125 -17.25 C 12.28125 -17.25 13.609375 -16.875 14.796875 -16.125 C 15.984375 -15.382812 16.914062 -14.34375 17.59375 -13 C 18.269531 -11.664062 18.609375 -10.160156 18.609375 -8.484375 C 18.609375 -6.796875 18.269531 -5.285156 17.59375 -3.953125 C 16.914062 -2.628906 15.984375 -1.585938 14.796875 -0.828125 C 13.609375 -0.078125 12.300781 0.296875 10.875 0.296875 C 9.75 0.296875 8.703125 0.046875 7.734375 -0.453125 C 6.765625 -0.953125 5.976562 -1.554688 5.375 -2.265625 L 5.375 4.921875 C 5.375 5.347656 5.226562 5.710938 4.9375 6.015625 C 4.644531 6.316406 4.269531 6.46875 3.8125 6.46875 C 3.382812 6.46875 3.023438 6.320312 2.734375 6.03125 C 2.441406 5.738281 2.296875 5.367188 2.296875 4.921875 L 2.296875 -15.4375 C 2.296875 -15.894531 2.4375 -16.273438 2.71875 -16.578125 C 3 -16.878906 3.363281 -17.03125 3.8125 -17.03125 C 4.269531 -17.03125 4.644531 -16.878906 4.9375 -16.578125 C 5.226562 -16.273438 5.375 -15.894531 5.375 -15.4375 L 5.375 -14.5 C 5.894531 -15.257812 6.648438 -15.90625 7.640625 -16.4375 C 8.628906 -16.976562 9.6875 -17.25 10.8125 -17.25 Z M 10.453125 -2.5625 C 11.453125 -2.5625 12.347656 -2.816406 13.140625 -3.328125 C 13.941406 -3.847656 14.5625 -4.554688 15 -5.453125 C 15.445312 -6.347656 15.671875 -7.359375 15.671875 -8.484375 C 15.671875 -9.609375 15.445312 -10.617188 15 -11.515625 C 14.5625 -12.410156 13.941406 -13.113281 13.140625 -13.625 C 12.347656 -14.144531 11.453125 -14.40625 10.453125 -14.40625 C 9.441406 -14.40625 8.535156 -14.148438 7.734375 -13.640625 C 6.941406 -13.140625 6.320312 -12.4375 5.875 -11.53125 C 5.4375 -10.625 5.21875 -9.609375 5.21875 -8.484375 C 5.21875 -7.359375 5.4375 -6.34375 5.875 -5.4375 C 6.320312 -4.53125 6.941406 -3.820312 7.734375 -3.3125 C 8.535156 -2.8125 9.441406 -2.5625 10.453125 -2.5625 Z M 10.453125 -2.5625 "/></g></g></g><g fill="rgb(100%, 100%, 100%)" fill-opacity="1"><g transform="translate(110.645311, 24.100631)"><g><path d="M 1.328125 -2.65625 C 1.128906 -2.957031 1.03125 -3.25 1.03125 -3.53125 C 1.03125 -3.957031 1.257812 -4.320312 1.71875 -4.625 C 1.9375 -4.78125 2.179688 -4.859375 2.453125 -4.859375 C 2.847656 -4.859375 3.207031 -4.695312 3.53125 -4.375 C 4.175781 -3.632812 4.867188 -3.082031 5.609375 -2.71875 C 6.359375 -2.351562 7.25 -2.171875 8.28125 -2.171875 C 9.101562 -2.191406 9.828125 -2.378906 10.453125 -2.734375 C 11.078125 -3.085938 11.390625 -3.664062 11.390625 -4.46875 C 11.390625 -5.195312 11.070312 -5.753906 10.4375 -6.140625 C 9.800781 -6.535156 8.867188 -6.894531 7.640625 -7.21875 C 6.429688 -7.539062 5.425781 -7.878906 4.625 -8.234375 C 3.832031 -8.597656 3.160156 -9.117188 2.609375 -9.796875 C 2.054688 -10.472656 1.78125 -11.363281 1.78125 -12.46875 C 1.78125 -13.4375 2.054688 -14.285156 2.609375 -15.015625 C 3.160156 -15.753906 3.894531 -16.328125 4.8125 -16.734375 C 5.726562 -17.148438 6.722656 -17.359375 7.796875 -17.359375 C 8.835938 -17.359375 9.867188 -17.160156 10.890625 -16.765625 C 11.921875 -16.378906 12.757812 -15.785156 13.40625 -14.984375 C 13.664062 -14.679688 13.796875 -14.367188 13.796875 -14.046875 C 13.796875 -13.703125 13.625 -13.367188 13.28125 -13.046875 C 13.0625 -12.847656 12.789062 -12.75 12.46875 -12.75 C 12.070312 -12.75 11.757812 -12.878906 11.53125 -13.140625 C 11.070312 -13.660156 10.515625 -14.0625 9.859375 -14.34375 C 9.203125 -14.625 8.472656 -14.765625 7.671875 -14.765625 C 6.847656 -14.765625 6.148438 -14.597656 5.578125 -14.265625 C 5.015625 -13.929688 4.734375 -13.363281 4.734375 -12.5625 C 4.753906 -11.800781 5.082031 -11.238281 5.71875 -10.875 C 6.351562 -10.507812 7.328125 -10.15625 8.640625 -9.8125 C 9.785156 -9.507812 10.734375 -9.1875 11.484375 -8.84375 C 12.242188 -8.5 12.882812 -7.984375 13.40625 -7.296875 C 13.925781 -6.617188 14.1875 -5.726562 14.1875 -4.625 C 14.1875 -3.613281 13.894531 -2.734375 13.3125 -1.984375 C 12.726562 -1.242188 11.960938 -0.671875 11.015625 -0.265625 C 10.078125 0.128906 9.082031 0.328125 8.03125 0.328125 C 6.664062 0.328125 5.40625 0.09375 4.25 -0.375 C 3.101562 -0.851562 2.128906 -1.613281 1.328125 -2.65625 Z M 1.328125 -2.65625 "/></g></g></g></svg>